<?xml version="1.0" encoding="UTF-8" standalone="no"?><!DOCTYPE svg PUBLIC "-//W3C//DTD SVG 1.1//EN" "http://www.w3.org/Graphics/SVG/1.1/DTD/svg11.dtd"><!-- Generated by graphviz version 2.40.1 (20161225.0304)
 --><!-- Title: G Pages: 1 --><svg xmlns="http://www.w3.org/2000/svg" xmlns:xlink="http://www.w3.org/1999/xlink" width="522pt" height="404pt" viewBox="0.00 0.00 522.47 404.00">
<g id="graph0" class="graph" transform="scale(1 1) rotate(0) translate(4 400)">
<title>G</title>
<polygon fill="#ffffff" stroke="transparent" points="-4,4 -4,-400 518.4722,-400 518.4722,4 -4,4"/>
<!-- 138 -->
<g id="node1" class="node">
<title>138</title>
<ellipse fill="none" stroke="#000000" cx="232.4963" cy="-378" rx="76.1064" ry="18"/>
<text text-anchor="middle" x="232.4963" y="-373.8" font-family="Times,serif" font-size="14.00" fill="#000000"> L# 138 int x= 2;</text>
</g>
<!-- 139 -->
<g id="node2" class="node">
<title>139</title>
<ellipse fill="none" stroke="#000000" cx="232.4963" cy="-306" rx="76.1064" ry="18"/>
<text text-anchor="middle" x="232.4963" y="-301.8" font-family="Times,serif" font-size="14.00" fill="#000000"> L# 139 int y= 3;</text>
</g>
<!-- 138&#45;&gt;139 -->
<g id="edge1" class="edge">
<title>138-&gt;139</title>
<path fill="none" stroke="#000000" d="M232.4963,-359.8314C232.4963,-352.131 232.4963,-342.9743 232.4963,-334.4166"/>
<polygon fill="#000000" stroke="#000000" points="235.9964,-334.4132 232.4963,-324.4133 228.9964,-334.4133 235.9964,-334.4132"/>
</g>
<!-- 141 -->
<g id="node3" class="node">
<title>141</title>
<ellipse fill="none" stroke="#000000" cx="232.4963" cy="-234" rx="232.4926" ry="18"/>
<text text-anchor="middle" x="232.4963" y="-229.8" font-family="Times,serif" font-size="14.00" fill="#000000"> L# 141 for(int a = 1 , b = 3; a &lt; 4 &amp;&amp; b &lt; 4; a++, b++) {</text>
</g>
<!-- 139&#45;&gt;141 -->
<g id="edge2" class="edge">
<title>139-&gt;141</title>
<path fill="none" stroke="#000000" d="M232.4963,-287.8314C232.4963,-280.131 232.4963,-270.9743 232.4963,-262.4166"/>
<polygon fill="#000000" stroke="#000000" points="235.9964,-262.4132 232.4963,-252.4133 228.9964,-262.4133 235.9964,-262.4132"/>
</g>
<!-- 142 -->
<g id="node4" class="node">
<title>142</title>
<ellipse fill="none" stroke="#000000" cx="142.4963" cy="-162" rx="61.7917" ry="18"/>
<text text-anchor="middle" x="142.4963" y="-157.8" font-family="Times,serif" font-size="14.00" fill="#000000"> L# 142 x++;</text>
</g>
<!-- 141&#45;&gt;142 -->
<g id="edge3" class="edge">
<title>141-&gt;142</title>
<path fill="none" stroke="#000000" d="M209.7855,-215.8314C198.1666,-206.5362 183.8953,-195.1192 171.4901,-185.195"/>
<polygon fill="#000000" stroke="#000000" points="173.6493,-182.4402 163.6542,-178.9263 169.2765,-187.9063 173.6493,-182.4402"/>
</g>
<!-- 146 -->
<g id="node5" class="node">
<title>146</title>
<ellipse fill="none" stroke="#000000" cx="387.4963" cy="-162" rx="126.9517" ry="18"/>
<text text-anchor="middle" x="387.4963" y="-157.8" font-family="Times,serif" font-size="14.00" fill="#000000"> L# 146 while(x &gt; 0 || y &lt; 0) {</text>
</g>
<!-- 141&#45;&gt;146 -->
<g id="edge4" class="edge">
<title>141-&gt;146</title>
<path fill="none" stroke="#000000" d="M270.8109,-216.2022C292.0688,-206.3276 318.6644,-193.9735 341.094,-183.5546"/>
<polygon fill="#000000" stroke="#000000" points="342.829,-186.6079 350.4238,-179.2208 339.88,-180.2594 342.829,-186.6079"/>
</g>
<!-- 143 -->
<g id="node6" class="node">
<title>143</title>
<ellipse fill="none" stroke="#000000" cx="187.4963" cy="-90" rx="61.7917" ry="18"/>
<text text-anchor="middle" x="187.4963" y="-85.8" font-family="Times,serif" font-size="14.00" fill="#000000"> L# 143 y++;</text>
</g>
<!-- 142&#45;&gt;143 -->
<g id="edge5" class="edge">
<title>142-&gt;143</title>
<path fill="none" stroke="#000000" d="M153.6199,-144.2022C158.8664,-135.8079 165.2327,-125.6218 171.0239,-116.3558"/>
<polygon fill="#000000" stroke="#000000" points="174.0127,-118.1776 176.3447,-107.8425 168.0767,-114.4675 174.0127,-118.1776"/>
</g>
<!-- 147 -->
<g id="node7" class="node">
<title>147</title>
<ellipse fill="none" stroke="#000000" cx="387.4963" cy="-90" rx="57.3686" ry="18"/>
<text text-anchor="middle" x="387.4963" y="-85.8" font-family="Times,serif" font-size="14.00" fill="#000000"> L# 147 x--;</text>
</g>
<!-- 146&#45;&gt;147 -->
<g id="edge7" class="edge">
<title>146-&gt;147</title>
<path fill="none" stroke="#000000" d="M381.5439,-143.8314C380.782,-136.0125 380.5659,-126.6923 380.8959,-118.0221"/>
<polygon fill="#000000" stroke="#000000" points="384.3967,-118.1239 381.569,-107.9134 377.4122,-117.6587 384.3967,-118.1239"/>
</g>
<!-- 149 -->
<g id="node8" class="node">
<title>149</title>
<ellipse fill="none" stroke="#000000" cx="429.4963" cy="-18" rx="27" ry="18"/>
<text text-anchor="middle" x="429.4963" y="-13.8" font-family="Times,serif" font-size="14.00" fill="#000000">149</text>
</g>
<!-- 146&#45;&gt;149 -->
<g id="edge8" class="edge">
<title>146-&gt;149</title>
<path fill="none" stroke="#000000" d="M419.5644,-144.4272C432.6333,-135.4109 446.3322,-123.1179 453.4963,-108 463.2853,-87.3428 454.9459,-62.057 445.5137,-43.5529"/>
<polygon fill="#000000" stroke="#000000" points="448.4537,-41.6352 440.5719,-34.5551 442.3181,-45.005 448.4537,-41.6352"/>
</g>
<!-- 143&#45;&gt;141 -->
<g id="edge6" class="edge">
<title>143-&gt;141</title>
<path fill="none" stroke="#000000" d="M197.5298,-108.0323C202.9034,-118.3148 209.268,-131.5902 213.4963,-144 220.3528,-164.1232 225.2163,-187.6553 228.3054,-205.6092"/>
<polygon fill="#000000" stroke="#000000" points="224.892,-206.4233 229.9611,-215.7268 231.8001,-205.2927 224.892,-206.4233"/>
</g>
<!-- 147&#45;&gt;146 -->
<g id="edge9" class="edge">
<title>147-&gt;146</title>
<path fill="none" stroke="#000000" d="M393.4236,-107.9134C394.1975,-115.6993 394.4254,-125.01 394.1074,-133.6941"/>
<polygon fill="#000000" stroke="#000000" points="390.6046,-133.6254 393.4487,-143.8314 397.5898,-134.0794 390.6046,-133.6254"/>
</g>
<!-- 147&#45;&gt;149 -->
<g id="edge10" class="edge">
<title>147-&gt;149</title>
<path fill="none" stroke="#000000" d="M397.8783,-72.2022C402.8339,-63.7071 408.8599,-53.3767 414.3167,-44.0223"/>
<polygon fill="#000000" stroke="#000000" points="417.5074,-45.4986 419.5229,-35.0972 411.461,-41.9715 417.5074,-45.4986"/>
</g>
</g>
</svg>