<?xml version="1.0" encoding="UTF-8" standalone="no"?><!DOCTYPE svg PUBLIC "-//W3C//DTD SVG 1.1//EN" "http://www.w3.org/Graphics/SVG/1.1/DTD/svg11.dtd"><!-- Generated by graphviz version 2.40.1 (20161225.0304)
 --><!-- Title: G Pages: 1 --><svg xmlns="http://www.w3.org/2000/svg" xmlns:xlink="http://www.w3.org/1999/xlink" width="351pt" height="188pt" viewBox="0.00 0.00 350.77 188.00">
<g id="graph0" class="graph" transform="scale(1 1) rotate(0) translate(4 184)">
<title>G</title>
<polygon fill="#ffffff" stroke="transparent" points="-4,4 -4,-184 346.7675,-184 346.7675,4 -4,4"/>
<!-- 125 -->
<g id="node1" class="node">
<title>125</title>
<ellipse fill="none" stroke="#000000" cx="137.7675" cy="-162" rx="78.935" ry="18"/>
<text text-anchor="middle" x="137.7675" y="-157.8" font-family="Times,serif" font-size="14.00" fill="#000000"> L# 125 int x = 3;</text>
</g>
<!-- 127 -->
<g id="node2" class="node">
<title>127</title>
<ellipse fill="none" stroke="#000000" cx="137.7675" cy="-90" rx="137.5354" ry="18"/>
<text text-anchor="middle" x="137.7675" y="-85.8" font-family="Times,serif" font-size="14.00" fill="#000000"> L# 127 for(int i = 0; i &lt; x; i++){</text>
</g>
<!-- 125&#45;&gt;127 -->
<g id="edge1" class="edge">
<title>125-&gt;127</title>
<path fill="none" stroke="#000000" d="M137.7675,-143.8314C137.7675,-136.131 137.7675,-126.9743 137.7675,-118.4166"/>
<polygon fill="#000000" stroke="#000000" points="141.2676,-118.4132 137.7675,-108.4133 134.2676,-118.4133 141.2676,-118.4132"/>
</g>
<!-- 129 -->
<g id="node3" class="node">
<title>129</title>
<ellipse fill="none" stroke="#000000" cx="137.7675" cy="-18" rx="133.1485" ry="18"/>
<text text-anchor="middle" x="137.7675" y="-13.8" font-family="Times,serif" font-size="14.00" fill="#000000"> L# 129 System.out.println(`i`);</text>
</g>
<!-- 127&#45;&gt;129 -->
<g id="edge2" class="edge">
<title>127-&gt;129</title>
<path fill="none" stroke="#000000" d="M131.8151,-71.8314C131.0647,-64.131 130.8438,-54.9743 131.1524,-46.4166"/>
<polygon fill="#000000" stroke="#000000" points="134.6467,-46.6161 131.7915,-36.4133 127.6609,-46.1697 134.6467,-46.6161"/>
</g>
<!-- 133 -->
<g id="node4" class="node">
<title>133</title>
<ellipse fill="none" stroke="#000000" cx="315.7675" cy="-18" rx="27" ry="18"/>
<text text-anchor="middle" x="315.7675" y="-13.8" font-family="Times,serif" font-size="14.00" fill="#000000">133</text>
</g>
<!-- 127&#45;&gt;133 -->
<g id="edge3" class="edge">
<title>127-&gt;133</title>
<path fill="none" stroke="#000000" d="M185.9073,-73.0559C213.6301,-62.9606 248.9736,-49.5131 279.7675,-36 281.5431,-35.2208 283.3568,-34.399 285.1795,-33.5531"/>
<polygon fill="#000000" stroke="#000000" points="286.7323,-36.6901 294.2324,-29.2068 283.7027,-30.3797 286.7323,-36.6901"/>
</g>
<!-- 129&#45;&gt;127 -->
<g id="edge4" class="edge">
<title>129-&gt;127</title>
<path fill="none" stroke="#000000" d="M143.7435,-36.4133C144.4746,-44.0593 144.6878,-53.1084 144.383,-61.5726"/>
<polygon fill="#000000" stroke="#000000" points="140.8723,-61.6264 143.7199,-71.8314 147.8577,-62.078 140.8723,-61.6264"/>
</g>
</g>
</svg>