<?xml version="1.0" encoding="UTF-8" standalone="no"?><!DOCTYPE svg PUBLIC "-//W3C//DTD SVG 1.1//EN" "http://www.w3.org/Graphics/SVG/1.1/DTD/svg11.dtd"><!-- Generated by graphviz version 2.40.1 (20161225.0304)
 --><!-- Title: G Pages: 1 --><svg xmlns="http://www.w3.org/2000/svg" xmlns:xlink="http://www.w3.org/1999/xlink" width="220pt" height="260pt" viewBox="0.00 0.00 219.56 260.00">
<g id="graph0" class="graph" transform="scale(1 1) rotate(0) translate(4 256)">
<title>G</title>
<polygon fill="#ffffff" stroke="transparent" points="-4,4 -4,-256 215.5574,-256 215.5574,4 -4,4"/>
<!-- 79 -->
<g id="node1" class="node">
<title>79</title>
<ellipse fill="none" stroke="#000000" cx="105.2787" cy="-234" rx="80.272" ry="18"/>
<text text-anchor="middle" x="105.2787" y="-229.8" font-family="Times,serif" font-size="14.00" fill="#000000"> L# 79 if (x &lt; 3) {</text>
</g>
<!-- 82 -->
<g id="node2" class="node">
<title>82</title>
<ellipse fill="none" stroke="#000000" cx="61.2787" cy="-90" rx="61.0582" ry="18"/>
<text text-anchor="middle" x="61.2787" y="-85.8" font-family="Times,serif" font-size="14.00" fill="#000000"> L# 82 x = 7;</text>
</g>
<!-- 79&#45;&gt;82 -->
<g id="edge1" class="edge">
<title>79-&gt;82</title>
<path fill="none" stroke="#000000" d="M95.6613,-215.9237C90.5039,-205.6273 84.3835,-192.3528 80.2787,-180 73.5747,-159.8254 68.7052,-136.2954 65.575,-118.3553"/>
<polygon fill="#000000" stroke="#000000" points="68.9869,-117.5362 63.8912,-108.2472 62.082,-118.6864 68.9869,-117.5362"/>
</g>
<!-- 80 -->
<g id="node3" class="node">
<title>80</title>
<ellipse fill="none" stroke="#000000" cx="150.2787" cy="-162" rx="61.0582" ry="18"/>
<text text-anchor="middle" x="150.2787" y="-157.8" font-family="Times,serif" font-size="14.00" fill="#000000"> L# 80 x = 6;</text>
</g>
<!-- 79&#45;&gt;80 -->
<g id="edge2" class="edge">
<title>79-&gt;80</title>
<path fill="none" stroke="#000000" d="M116.6341,-215.8314C121.7894,-207.5829 127.989,-197.6635 133.6542,-188.5992"/>
<polygon fill="#000000" stroke="#000000" points="136.7508,-190.2484 139.0828,-179.9134 130.8148,-186.5384 136.7508,-190.2484"/>
</g>
<!-- 84 -->
<g id="node4" class="node">
<title>84</title>
<ellipse fill="none" stroke="#000000" cx="105.2787" cy="-18" rx="27" ry="18"/>
<text text-anchor="middle" x="105.2787" y="-13.8" font-family="Times,serif" font-size="14.00" fill="#000000">84</text>
</g>
<!-- 82&#45;&gt;84 -->
<g id="edge5" class="edge">
<title>82-&gt;84</title>
<path fill="none" stroke="#000000" d="M72.1551,-72.2022C77.4007,-63.6186 83.7912,-53.1613 89.5546,-43.7303"/>
<polygon fill="#000000" stroke="#000000" points="92.6023,-45.4551 94.8304,-35.0972 86.6294,-41.805 92.6023,-45.4551"/>
</g>
<!-- 80&#45;&gt;82 -->
<g id="edge4" class="edge">
<title>80-&gt;82</title>
<path fill="none" stroke="#000000" d="M129.1869,-144.937C117.5489,-135.522 102.9247,-123.6912 90.231,-113.4221"/>
<polygon fill="#000000" stroke="#000000" points="92.1949,-110.5089 82.2191,-106.9405 87.7922,-115.9511 92.1949,-110.5089"/>
</g>
<!-- 80&#45;&gt;84 -->
<g id="edge3" class="edge">
<title>80-&gt;84</title>
<path fill="none" stroke="#000000" d="M147.7435,-143.7268C144.8811,-125.2955 139.5194,-96.1857 131.2787,-72 128.0749,-62.5972 123.6448,-52.6976 119.3485,-43.9793"/>
<polygon fill="#000000" stroke="#000000" points="122.463,-42.3822 114.8035,-35.0621 116.2263,-45.561 122.463,-42.3822"/>
</g>
</g>
</svg>