<?xml version="1.0" encoding="UTF-8" standalone="no"?><!DOCTYPE svg PUBLIC "-//W3C//DTD SVG 1.1//EN" "http://www.w3.org/Graphics/SVG/1.1/DTD/svg11.dtd"><!-- Generated by graphviz version 2.40.1 (20161225.0304)
 --><!-- Title: G Pages: 1 --><svg xmlns="http://www.w3.org/2000/svg" xmlns:xlink="http://www.w3.org/1999/xlink" width="340pt" height="476pt" viewBox="0.00 0.00 340.21 476.00">
<g id="graph0" class="graph" transform="scale(1 1) rotate(0) translate(4 472)">
<title>G</title>
<polygon fill="#ffffff" stroke="transparent" points="-4,4 -4,-472 336.205,-472 336.205,4 -4,4"/>
<!-- 88 -->
<g id="node1" class="node">
<title>88</title>
<ellipse fill="none" stroke="#000000" cx="210.7632" cy="-450" rx="73.7776" ry="18"/>
<text text-anchor="middle" x="210.7632" y="-445.8" font-family="Times,serif" font-size="14.00" fill="#000000"> L# 88 int x = 1;</text>
</g>
<!-- 90 -->
<g id="node2" class="node">
<title>90</title>
<ellipse fill="none" stroke="#000000" cx="210.7632" cy="-378" rx="85.6633" ry="18"/>
<text text-anchor="middle" x="210.7632" y="-373.8" font-family="Times,serif" font-size="14.00" fill="#000000"> L# 90 if (x == y) {</text>
</g>
<!-- 88&#45;&gt;90 -->
<g id="edge1" class="edge">
<title>88-&gt;90</title>
<path fill="none" stroke="#000000" d="M210.7632,-431.8314C210.7632,-424.131 210.7632,-414.9743 210.7632,-406.4166"/>
<polygon fill="#000000" stroke="#000000" points="214.2633,-406.4132 210.7632,-396.4133 207.2633,-406.4133 214.2633,-406.4132"/>
</g>
<!-- 93 -->
<g id="node3" class="node">
<title>93</title>
<ellipse fill="none" stroke="#000000" cx="166.7632" cy="-234" rx="85.6633" ry="18"/>
<text text-anchor="middle" x="166.7632" y="-229.8" font-family="Times,serif" font-size="14.00" fill="#000000"> L# 93 if (x == 8) {</text>
</g>
<!-- 90&#45;&gt;93 -->
<g id="edge2" class="edge">
<title>90-&gt;93</title>
<path fill="none" stroke="#000000" d="M201.1458,-359.9237C195.9884,-349.6273 189.868,-336.3528 185.7632,-324 179.0592,-303.8254 174.1897,-280.2954 171.0595,-262.3553"/>
<polygon fill="#000000" stroke="#000000" points="174.4714,-261.5362 169.3757,-252.2472 167.5665,-262.6864 174.4714,-261.5362"/>
</g>
<!-- 91 -->
<g id="node4" class="node">
<title>91</title>
<ellipse fill="none" stroke="#000000" cx="255.7632" cy="-306" rx="61.0582" ry="18"/>
<text text-anchor="middle" x="255.7632" y="-301.8" font-family="Times,serif" font-size="14.00" fill="#000000"> L# 91 y = 6;</text>
</g>
<!-- 90&#45;&gt;91 -->
<g id="edge3" class="edge">
<title>90-&gt;91</title>
<path fill="none" stroke="#000000" d="M222.1186,-359.8314C227.2739,-351.5829 233.4735,-341.6635 239.1387,-332.5992"/>
<polygon fill="#000000" stroke="#000000" points="242.2353,-334.2484 244.5673,-323.9134 236.2993,-330.5384 242.2353,-334.2484"/>
</g>
<!-- 96 -->
<g id="node6" class="node">
<title>96</title>
<ellipse fill="none" stroke="#000000" cx="121.7632" cy="-90" rx="61.0582" ry="18"/>
<text text-anchor="middle" x="121.7632" y="-85.8" font-family="Times,serif" font-size="14.00" fill="#000000"> L# 96 y = 1;</text>
</g>
<!-- 93&#45;&gt;96 -->
<g id="edge6" class="edge">
<title>93-&gt;96</title>
<path fill="none" stroke="#000000" d="M105.7794,-221.1592C65.7952,-211.3619 18.7742,-196.7303 6.7632,-180 -2.5678,-167.0026 -1.8156,-157.5057 6.7632,-144 19.1724,-124.4638 40.7294,-111.8705 61.8503,-103.8107"/>
<polygon fill="#000000" stroke="#000000" points="63.2187,-107.0396 71.4894,-100.4179 60.8945,-100.4367 63.2187,-107.0396"/>
</g>
<!-- 94 -->
<g id="node7" class="node">
<title>94</title>
<ellipse fill="none" stroke="#000000" cx="166.7632" cy="-162" rx="150.8772" ry="18"/>
<text text-anchor="middle" x="166.7632" y="-157.8" font-family="Times,serif" font-size="14.00" fill="#000000"> L# 94 System.out.println(`x == 7`);</text>
</g>
<!-- 93&#45;&gt;94 -->
<g id="edge7" class="edge">
<title>93-&gt;94</title>
<path fill="none" stroke="#000000" d="M166.7632,-215.8314C166.7632,-208.131 166.7632,-198.9743 166.7632,-190.4166"/>
<polygon fill="#000000" stroke="#000000" points="170.2633,-190.4132 166.7632,-180.4133 163.2633,-190.4133 170.2633,-190.4132"/>
</g>
<!-- 91&#45;&gt;93 -->
<g id="edge5" class="edge">
<title>91-&gt;93</title>
<path fill="none" stroke="#000000" d="M234.6714,-288.937C223.2021,-279.6584 208.8325,-268.0336 196.2686,-257.8696"/>
<polygon fill="#000000" stroke="#000000" points="198.2976,-255.0091 188.3218,-251.4407 193.895,-260.4513 198.2976,-255.0091"/>
</g>
<!-- 99 -->
<g id="node5" class="node">
<title>99</title>
<ellipse fill="none" stroke="#000000" cx="210.7632" cy="-18" rx="27" ry="18"/>
<text text-anchor="middle" x="210.7632" y="-13.8" font-family="Times,serif" font-size="14.00" fill="#000000">99</text>
</g>
<!-- 91&#45;&gt;99 -->
<g id="edge4" class="edge">
<title>91-&gt;99</title>
<path fill="none" stroke="#000000" d="M273.006,-288.6963C300.1315,-259.2776 347.638,-197.4945 326.7632,-144 309.0331,-98.5643 266.3995,-59.624 238.0552,-37.5093"/>
<polygon fill="#000000" stroke="#000000" points="239.8383,-34.468 229.7608,-31.1977 235.5994,-40.0386 239.8383,-34.468"/>
</g>
<!-- 96&#45;&gt;99 -->
<g id="edge10" class="edge">
<title>96-&gt;99</title>
<path fill="none" stroke="#000000" d="M142.8549,-72.937C155.6255,-62.6058 171.9916,-49.3658 185.4571,-38.4724"/>
<polygon fill="#000000" stroke="#000000" points="187.8352,-41.0504 193.4084,-32.0399 183.4325,-35.6083 187.8352,-41.0504"/>
</g>
<!-- 94&#45;&gt;99 -->
<g id="edge8" class="edge">
<title>94-&gt;99</title>
<path fill="none" stroke="#000000" d="M176.3806,-143.9237C181.538,-133.6273 187.6584,-120.3528 191.7632,-108 198.4672,-87.8254 203.3367,-64.2954 206.4669,-46.3553"/>
<polygon fill="#000000" stroke="#000000" points="209.9598,-46.6864 208.1507,-36.2472 203.055,-45.5362 209.9598,-46.6864"/>
</g>
<!-- 94&#45;&gt;96 -->
<g id="edge9" class="edge">
<title>94-&gt;96</title>
<path fill="none" stroke="#000000" d="M155.4078,-143.8314C150.2525,-135.5829 144.0529,-125.6635 138.3877,-116.5992"/>
<polygon fill="#000000" stroke="#000000" points="141.2271,-114.5384 132.9591,-107.9134 135.2911,-118.2484 141.2271,-114.5384"/>
</g>
</g>
</svg>