<?xml version="1.0" encoding="UTF-8" standalone="no"?><!DOCTYPE svg PUBLIC "-//W3C//DTD SVG 1.1//EN" "http://www.w3.org/Graphics/SVG/1.1/DTD/svg11.dtd"><!-- Generated by graphviz version 2.40.1 (20161225.0304)
 --><!-- Title: G Pages: 1 --><svg xmlns="http://www.w3.org/2000/svg" xmlns:xlink="http://www.w3.org/1999/xlink" width="359pt" height="692pt" viewBox="0.00 0.00 358.77 692.00">
<g id="graph0" class="graph" transform="scale(1 1) rotate(0) translate(4 688)">
<title>G</title>
<polygon fill="#ffffff" stroke="transparent" points="-4,4 -4,-688 354.7671,-688 354.7671,4 -4,4"/>
<!-- 104 -->
<g id="node1" class="node">
<title>104</title>
<ellipse fill="none" stroke="#000000" cx="237.6599" cy="-666" rx="78.935" ry="18"/>
<text text-anchor="middle" x="237.6599" y="-661.8" font-family="Times,serif" font-size="14.00" fill="#000000"> L# 104 int x = 1;</text>
</g>
<!-- 106 -->
<g id="node2" class="node">
<title>106</title>
<ellipse fill="none" stroke="#000000" cx="237.6599" cy="-594" rx="90.8202" ry="18"/>
<text text-anchor="middle" x="237.6599" y="-589.8" font-family="Times,serif" font-size="14.00" fill="#000000"> L# 106 if (x == y) {</text>
</g>
<!-- 104&#45;&gt;106 -->
<g id="edge1" class="edge">
<title>104-&gt;106</title>
<path fill="none" stroke="#000000" d="M237.6599,-647.8314C237.6599,-640.131 237.6599,-630.9743 237.6599,-622.4166"/>
<polygon fill="#000000" stroke="#000000" points="241.16,-622.4132 237.6599,-612.4133 234.16,-622.4133 241.16,-622.4132"/>
</g>
<!-- 109 -->
<g id="node3" class="node">
<title>109</title>
<ellipse fill="none" stroke="#000000" cx="190.6599" cy="-450" rx="90.8202" ry="18"/>
<text text-anchor="middle" x="190.6599" y="-445.8" font-family="Times,serif" font-size="14.00" fill="#000000"> L# 109 if (x == 8) {</text>
</g>
<!-- 106&#45;&gt;109 -->
<g id="edge2" class="edge">
<title>106-&gt;109</title>
<path fill="none" stroke="#000000" d="M226.7958,-576.0607C220.9904,-565.8073 214.1375,-552.5301 209.6599,-540 202.4725,-519.8866 197.609,-496.2232 194.6031,-478.2096"/>
<polygon fill="#000000" stroke="#000000" points="198.0595,-477.6585 193.0444,-468.3259 191.145,-478.749 198.0595,-477.6585"/>
</g>
<!-- 107 -->
<g id="node4" class="node">
<title>107</title>
<ellipse fill="none" stroke="#000000" cx="284.6599" cy="-522" rx="66.2145" ry="18"/>
<text text-anchor="middle" x="284.6599" y="-517.8" font-family="Times,serif" font-size="14.00" fill="#000000"> L# 107 y = 6;</text>
</g>
<!-- 106&#45;&gt;107 -->
<g id="edge3" class="edge">
<title>106-&gt;107</title>
<path fill="none" stroke="#000000" d="M249.52,-575.8314C254.9605,-567.497 261.5146,-557.4567 267.4813,-548.3162"/>
<polygon fill="#000000" stroke="#000000" points="270.431,-550.2004 272.9665,-539.9134 264.5694,-546.374 270.431,-550.2004"/>
</g>
<!-- 112 -->
<g id="node6" class="node">
<title>112</title>
<ellipse fill="none" stroke="#000000" cx="136.6599" cy="-306" rx="90.8202" ry="18"/>
<text text-anchor="middle" x="136.6599" y="-301.8" font-family="Times,serif" font-size="14.00" fill="#000000"> L# 112 if (x == 6) {</text>
</g>
<!-- 109&#45;&gt;112 -->
<g id="edge6" class="edge">
<title>109-&gt;112</title>
<path fill="none" stroke="#000000" d="M168.3228,-432.4503C157.9252,-422.8968 146.5695,-410.1473 140.6599,-396 132.4961,-376.456 131.8501,-352.4043 133.0528,-334.0831"/>
<polygon fill="#000000" stroke="#000000" points="136.5469,-334.3023 133.9316,-324.0354 129.5735,-333.6923 136.5469,-334.3023"/>
</g>
<!-- 110 -->
<g id="node7" class="node">
<title>110</title>
<ellipse fill="none" stroke="#000000" cx="215.6599" cy="-378" rx="66.2145" ry="18"/>
<text text-anchor="middle" x="215.6599" y="-373.8" font-family="Times,serif" font-size="14.00" fill="#000000"> L# 110 y = 7;</text>
</g>
<!-- 109&#45;&gt;110 -->
<g id="edge7" class="edge">
<title>109-&gt;110</title>
<path fill="none" stroke="#000000" d="M196.9685,-431.8314C199.6716,-424.0463 202.8916,-414.7729 205.8909,-406.1347"/>
<polygon fill="#000000" stroke="#000000" points="209.2926,-407.0081 209.2665,-396.4133 202.6799,-404.7119 209.2926,-407.0081"/>
</g>
<!-- 107&#45;&gt;109 -->
<g id="edge5" class="edge">
<title>107-&gt;109</title>
<path fill="none" stroke="#000000" d="M262.3833,-504.937C250.1542,-495.57 234.8033,-483.8119 221.4444,-473.5796"/>
<polygon fill="#000000" stroke="#000000" points="223.4968,-470.7429 213.4297,-467.4407 219.2402,-476.3001 223.4968,-470.7429"/>
</g>
<!-- 119 -->
<g id="node5" class="node">
<title>119</title>
<ellipse fill="none" stroke="#000000" cx="225.6599" cy="-18" rx="27" ry="18"/>
<text text-anchor="middle" x="225.6599" y="-13.8" font-family="Times,serif" font-size="14.00" fill="#000000">119</text>
</g>
<!-- 107&#45;&gt;119 -->
<g id="edge4" class="edge">
<title>107-&gt;119</title>
<path fill="none" stroke="#000000" d="M289.84,-503.9889C297.1626,-476.8949 309.6599,-423.9269 309.6599,-378 309.6599,-378 309.6599,-378 309.6599,-162 309.6599,-113.2668 273.3208,-66.3445 248.4452,-39.9334"/>
<polygon fill="#000000" stroke="#000000" points="250.9339,-37.4721 241.4597,-32.7296 245.9086,-42.3451 250.9339,-37.4721"/>
</g>
<!-- 115 -->
<g id="node8" class="node">
<title>115</title>
<ellipse fill="none" stroke="#000000" cx="90.6599" cy="-162" rx="90.8202" ry="18"/>
<text text-anchor="middle" x="90.6599" y="-157.8" font-family="Times,serif" font-size="14.00" fill="#000000"> L# 115 if (x == 5) {</text>
</g>
<!-- 112&#45;&gt;115 -->
<g id="edge10" class="edge">
<title>112-&gt;115</title>
<path fill="none" stroke="#000000" d="M118.2989,-288.2797C109.4389,-278.4991 99.6656,-265.5976 94.6599,-252 87.3881,-232.2462 86.6567,-208.3876 87.5986,-190.2"/>
<polygon fill="#000000" stroke="#000000" points="91.09,-190.4441 88.3098,-180.2206 84.1077,-189.9465 91.09,-190.4441"/>
</g>
<!-- 113 -->
<g id="node9" class="node">
<title>113</title>
<ellipse fill="none" stroke="#000000" cx="169.6599" cy="-234" rx="66.2145" ry="18"/>
<text text-anchor="middle" x="169.6599" y="-229.8" font-family="Times,serif" font-size="14.00" fill="#000000"> L# 113 y = 1;</text>
</g>
<!-- 112&#45;&gt;113 -->
<g id="edge11" class="edge">
<title>112-&gt;113</title>
<path fill="none" stroke="#000000" d="M144.9872,-287.8314C148.689,-279.7547 153.1251,-270.0761 157.2085,-261.1668"/>
<polygon fill="#000000" stroke="#000000" points="160.4648,-262.4624 161.4496,-251.9134 154.1013,-259.5458 160.4648,-262.4624"/>
</g>
<!-- 110&#45;&gt;119 -->
<g id="edge8" class="edge">
<title>110-&gt;119</title>
<path fill="none" stroke="#000000" d="M225.8395,-360.0031C239.9295,-333.3554 263.6599,-281.4342 263.6599,-234 263.6599,-234 263.6599,-234 263.6599,-162 263.6599,-119.9055 248.2912,-73.1122 237.1015,-44.6212"/>
<polygon fill="#000000" stroke="#000000" points="240.3438,-43.3029 233.3498,-35.3446 233.8544,-45.9274 240.3438,-43.3029"/>
</g>
<!-- 110&#45;&gt;112 -->
<g id="edge9" class="edge">
<title>110-&gt;112</title>
<path fill="none" stroke="#000000" d="M196.5363,-360.5708C186.6884,-351.5955 174.5136,-340.4996 163.7193,-330.6617"/>
<polygon fill="#000000" stroke="#000000" points="165.9049,-327.9181 156.1564,-323.7689 161.1897,-333.0918 165.9049,-327.9181"/>
</g>
<!-- 115&#45;&gt;119 -->
<g id="edge14" class="edge">
<title>115-&gt;119</title>
<path fill="none" stroke="#000000" d="M74.3834,-144.0549C59.0021,-124.836 40.5049,-94.1217 56.6599,-72 72.4595,-50.3651 144.8168,-33.1994 189.5758,-24.4183"/>
<polygon fill="#000000" stroke="#000000" points="190.3291,-27.8378 199.4932,-22.5208 189.0136,-20.9625 190.3291,-27.8378"/>
</g>
<!-- 116 -->
<g id="node10" class="node">
<title>116</title>
<ellipse fill="none" stroke="#000000" cx="131.6599" cy="-90" rx="66.2145" ry="18"/>
<text text-anchor="middle" x="131.6599" y="-85.8" font-family="Times,serif" font-size="14.00" fill="#000000"> L# 116 y = 4;</text>
</g>
<!-- 115&#45;&gt;116 -->
<g id="edge15" class="edge">
<title>115-&gt;116</title>
<path fill="none" stroke="#000000" d="M101.006,-143.8314C105.6541,-135.6688 111.234,-125.87 116.3517,-116.8827"/>
<polygon fill="#000000" stroke="#000000" points="119.5523,-118.3352 121.4593,-107.9134 113.4694,-114.8713 119.5523,-118.3352"/>
</g>
<!-- 113&#45;&gt;119 -->
<g id="edge12" class="edge">
<title>113-&gt;119</title>
<path fill="none" stroke="#000000" d="M177.5574,-215.7494C181.8329,-205.3985 186.9777,-192.1276 190.6599,-180 204.6297,-133.9901 215.2752,-79.0183 220.9838,-46.3899"/>
<polygon fill="#000000" stroke="#000000" points="224.486,-46.6744 222.7281,-36.2265 217.5869,-45.4903 224.486,-46.6744"/>
</g>
<!-- 113&#45;&gt;115 -->
<g id="edge13" class="edge">
<title>113-&gt;115</title>
<path fill="none" stroke="#000000" d="M150.5363,-216.5708C140.6884,-207.5955 128.5136,-196.4996 117.7193,-186.6617"/>
<polygon fill="#000000" stroke="#000000" points="119.9049,-183.9181 110.1564,-179.7689 115.1897,-189.0918 119.9049,-183.9181"/>
</g>
<!-- 116&#45;&gt;119 -->
<g id="edge16" class="edge">
<title>116-&gt;119</title>
<path fill="none" stroke="#000000" d="M153.9366,-72.937C167.6426,-62.4388 185.2699,-48.937 199.6193,-37.946"/>
<polygon fill="#000000" stroke="#000000" points="201.8244,-40.6658 207.6349,-31.8064 197.5678,-35.1087 201.8244,-40.6658"/>
</g>
</g>
</svg>