<?xml version="1.0" encoding="UTF-8" standalone="no"?><!DOCTYPE svg PUBLIC "-//W3C//DTD SVG 1.1//EN" "http://www.w3.org/Graphics/SVG/1.1/DTD/svg11.dtd"><!-- Generated by graphviz version 2.40.1 (20161225.0304)
 --><!-- Title: G Pages: 1 --><svg xmlns="http://www.w3.org/2000/svg" xmlns:xlink="http://www.w3.org/1999/xlink" width="524pt" height="2059pt" viewBox="0.00 0.00 524.44 2059.40">
<g id="graph0" class="graph" transform="scale(1 1) rotate(0) translate(4 2055.4)">
<title>G</title>
<polygon fill="#ffffff" stroke="transparent" points="-4,4 -4,-2055.4 520.4429,-2055.4 520.4429,4 -4,4"/>
<!-- start -->
<g id="node1" class="node">
<title>start</title>
<text text-anchor="middle" x="272.792" y="-2029.2" font-family="Times,serif" font-size="14.00" fill="#000000">start</text>
</g>
<!-- 195 -->
<g id="node2" class="node">
<title>195</title>
<ellipse fill="none" stroke="#000000" stroke-dasharray="1,5" cx="272.792" cy="-1960.4" rx="48.0916" ry="18"/>
<text text-anchor="middle" x="272.792" y="-1956.2" font-family="Times,serif" font-size="14.00" fill="#000000">Labelnull</text>
</g>
<!-- start&#45;&gt;195 -->
<g id="edge1" class="edge">
<title>start-&gt;195</title>
<path fill="none" stroke="#000000" d="M272.792,-2015.3551C272.792,-2007.2828 272.792,-1997.5764 272.792,-1988.5817"/>
<polygon fill="#000000" stroke="#000000" points="276.2921,-1988.4903 272.792,-1978.4904 269.2921,-1988.4904 276.2921,-1988.4903"/>
</g>
<!-- 196 -->
<g id="node3" class="node">
<title>196</title>
<ellipse fill="none" stroke="#000000" stroke-dasharray="1,5" cx="272.792" cy="-1887.4" rx="31.2988" ry="18"/>
<text text-anchor="middle" x="272.792" y="-1883.2" font-family="Times,serif" font-size="14.00" fill="#000000">Line </text>
</g>
<!-- 195&#45;&gt;196 -->
<g id="edge2" class="edge">
<title>195-&gt;196</title>
<path fill="none" stroke="#000000" d="M272.792,-1942.3551C272.792,-1934.2828 272.792,-1924.5764 272.792,-1915.5817"/>
<polygon fill="#000000" stroke="#000000" points="276.2921,-1915.4903 272.792,-1905.4904 269.2921,-1915.4904 276.2921,-1915.4903"/>
</g>
<!-- 197 -->
<g id="node4" class="node">
<title>197</title>
<polygon fill="none" stroke="#000000" points="312.8388,-1832.4 232.7451,-1832.4 232.7451,-1796.4 312.8388,-1796.4 312.8388,-1832.4"/>
<text text-anchor="middle" x="272.792" y="-1810.2" font-family="Times,serif" font-size="14.00" fill="#000000">ICONST_1</text>
</g>
<!-- 196&#45;&gt;197 -->
<g id="edge3" class="edge">
<title>196-&gt;197</title>
<path fill="none" stroke="#000000" d="M272.792,-1869.3551C272.792,-1861.2828 272.792,-1851.5764 272.792,-1842.5817"/>
<polygon fill="#000000" stroke="#000000" points="276.2921,-1842.4903 272.792,-1832.4904 269.2921,-1842.4904 276.2921,-1842.4903"/>
</g>
<!-- 198 -->
<g id="node5" class="node">
<title>198</title>
<polygon fill="none" stroke="#000000" points="305.2836,-1759.4 240.3004,-1759.4 240.3004,-1723.4 305.2836,-1723.4 305.2836,-1759.4"/>
<text text-anchor="middle" x="272.792" y="-1737.2" font-family="Times,serif" font-size="14.00" fill="#000000">ISTORE</text>
</g>
<!-- 197&#45;&gt;198 -->
<g id="edge4" class="edge">
<title>197-&gt;198</title>
<path fill="none" stroke="#000000" d="M272.792,-1796.3551C272.792,-1788.2828 272.792,-1778.5764 272.792,-1769.5817"/>
<polygon fill="#000000" stroke="#000000" points="276.2921,-1769.4903 272.792,-1759.4904 269.2921,-1769.4904 276.2921,-1769.4903"/>
</g>
<!-- 199 -->
<g id="node6" class="node">
<title>199</title>
<ellipse fill="none" stroke="#000000" stroke-dasharray="1,5" cx="272.792" cy="-1668.4" rx="48.0916" ry="18"/>
<text text-anchor="middle" x="272.792" y="-1664.2" font-family="Times,serif" font-size="14.00" fill="#000000">Labelnull</text>
</g>
<!-- 198&#45;&gt;199 -->
<g id="edge5" class="edge">
<title>198-&gt;199</title>
<path fill="none" stroke="#000000" d="M272.792,-1723.3551C272.792,-1715.2828 272.792,-1705.5764 272.792,-1696.5817"/>
<polygon fill="#000000" stroke="#000000" points="276.2921,-1696.4903 272.792,-1686.4904 269.2921,-1696.4904 276.2921,-1696.4903"/>
</g>
<!-- 200 -->
<g id="node7" class="node">
<title>200</title>
<ellipse fill="none" stroke="#000000" stroke-dasharray="1,5" cx="272.792" cy="-1595.4" rx="53.5284" ry="18"/>
<text text-anchor="middle" x="272.792" y="-1591.2" font-family="Times,serif" font-size="14.00" fill="#000000">Line y = 6;</text>
</g>
<!-- 199&#45;&gt;200 -->
<g id="edge6" class="edge">
<title>199-&gt;200</title>
<path fill="none" stroke="#000000" d="M272.792,-1650.3551C272.792,-1642.2828 272.792,-1632.5764 272.792,-1623.5817"/>
<polygon fill="#000000" stroke="#000000" points="276.2921,-1623.4903 272.792,-1613.4904 269.2921,-1623.4904 276.2921,-1623.4903"/>
</g>
<!-- 201 -->
<g id="node8" class="node">
<title>201</title>
<polygon fill="none" stroke="#000000" points="302.3268,-1540.4 243.2571,-1540.4 243.2571,-1504.4 302.3268,-1504.4 302.3268,-1540.4"/>
<text text-anchor="middle" x="272.792" y="-1518.2" font-family="Times,serif" font-size="14.00" fill="#000000">ILOAD</text>
</g>
<!-- 200&#45;&gt;201 -->
<g id="edge7" class="edge">
<title>200-&gt;201</title>
<path fill="none" stroke="#000000" d="M272.792,-1577.3551C272.792,-1569.2828 272.792,-1559.5764 272.792,-1550.5817"/>
<polygon fill="#000000" stroke="#000000" points="276.2921,-1550.4903 272.792,-1540.4904 269.2921,-1550.4904 276.2921,-1550.4903"/>
</g>
<!-- 202 -->
<g id="node9" class="node">
<title>202</title>
<polygon fill="none" stroke="#000000" points="302.3268,-1467.4 243.2571,-1467.4 243.2571,-1431.4 302.3268,-1431.4 302.3268,-1467.4"/>
<text text-anchor="middle" x="272.792" y="-1445.2" font-family="Times,serif" font-size="14.00" fill="#000000">ILOAD</text>
</g>
<!-- 201&#45;&gt;202 -->
<g id="edge8" class="edge">
<title>201-&gt;202</title>
<path fill="none" stroke="#000000" d="M272.792,-1504.3551C272.792,-1496.2828 272.792,-1486.5764 272.792,-1477.5817"/>
<polygon fill="#000000" stroke="#000000" points="276.2921,-1477.4903 272.792,-1467.4904 269.2921,-1477.4904 276.2921,-1477.4903"/>
</g>
<!-- 203 -->
<g id="node10" class="node">
<title>203</title>
<polygon fill="none" stroke="#000000" points="317.1194,-1394.4 228.4646,-1394.4 228.4646,-1358.4 317.1194,-1358.4 317.1194,-1394.4"/>
<text text-anchor="middle" x="272.792" y="-1372.2" font-family="Times,serif" font-size="14.00" fill="#000000">IF_ICMPNE</text>
</g>
<!-- 202&#45;&gt;203 -->
<g id="edge9" class="edge">
<title>202-&gt;203</title>
<path fill="none" stroke="#000000" d="M272.792,-1431.3551C272.792,-1423.2828 272.792,-1413.5764 272.792,-1404.5817"/>
<polygon fill="#000000" stroke="#000000" points="276.2921,-1404.4903 272.792,-1394.4904 269.2921,-1404.4904 276.2921,-1404.4903"/>
</g>
<!-- 204 -->
<g id="node11" class="node">
<title>204</title>
<ellipse fill="none" stroke="#000000" stroke-dasharray="1,5" cx="216.792" cy="-1287.6" rx="48.0916" ry="18"/>
<text text-anchor="middle" x="216.792" y="-1283.4" font-family="Times,serif" font-size="14.00" fill="#000000">Labelnull</text>
</g>
<!-- 203&#45;&gt;204 -->
<g id="edge10" class="edge">
<title>203-&gt;204</title>
<path fill="none" stroke="#000000" d="M261.1887,-1358.0006C253.1996,-1345.3321 242.4607,-1328.3033 233.5459,-1314.1669"/>
<polygon fill="#000000" stroke="#000000" points="236.2929,-1311.9614 227.9982,-1305.3699 230.372,-1315.6954 236.2929,-1311.9614"/>
<text text-anchor="middle" x="257.792" y="-1327.8" font-family="Times,serif" font-size="14.00" fill="#000000">no</text>
</g>
<!-- 205 -->
<g id="node12" class="node">
<title>205</title>
<ellipse fill="none" stroke="#000000" stroke-dasharray="1,5" cx="349.792" cy="-1287.6" rx="48.0916" ry="18"/>
<text text-anchor="middle" x="349.792" y="-1283.4" font-family="Times,serif" font-size="14.00" fill="#000000">Labelnull</text>
</g>
<!-- 203&#45;&gt;205 -->
<g id="edge11" class="edge">
<title>203-&gt;205</title>
<path fill="none" stroke="#000000" d="M288.7464,-1358.0006C300.194,-1344.7987 315.7476,-1326.8615 328.2899,-1312.3972"/>
<polygon fill="#000000" stroke="#000000" points="330.9959,-1314.619 334.9028,-1304.7709 325.7072,-1310.0331 330.9959,-1314.619"/>
<text text-anchor="middle" x="327.1216" y="-1327.8" font-family="Times,serif" font-size="14.00" fill="#000000">yes</text>
</g>
<!-- 206 -->
<g id="node13" class="node">
<title>206</title>
<ellipse fill="none" stroke="#000000" stroke-dasharray="1,5" cx="102.792" cy="-1214.6" rx="102.5844" ry="18"/>
<text text-anchor="middle" x="102.792" y="-1210.4" font-family="Times,serif" font-size="14.00" fill="#000000">Line } else if (x == 8) {</text>
</g>
<!-- 204&#45;&gt;206 -->
<g id="edge12" class="edge">
<title>204-&gt;206</title>
<path fill="none" stroke="#000000" d="M192.3361,-1271.9397C176.7366,-1261.9505 156.2466,-1248.8297 138.8042,-1237.6604"/>
<polygon fill="#000000" stroke="#000000" points="140.3116,-1234.4696 130.0027,-1232.0244 136.5367,-1240.3646 140.3116,-1234.4696"/>
</g>
<!-- 211 -->
<g id="node18" class="node">
<title>211</title>
<ellipse fill="none" stroke="#000000" stroke-dasharray="1,5" cx="369.792" cy="-1214.6" rx="146.802" ry="18"/>
<text text-anchor="middle" x="369.792" y="-1210.4" font-family="Times,serif" font-size="14.00" fill="#000000">Line System.out.println(*x == 7*);</text>
</g>
<!-- 205&#45;&gt;211 -->
<g id="edge17" class="edge">
<title>205-&gt;211</title>
<path fill="none" stroke="#000000" d="M354.7358,-1269.5551C356.9714,-1261.3951 359.6645,-1251.5652 362.1512,-1242.4887"/>
<polygon fill="#000000" stroke="#000000" points="365.5689,-1243.2598 364.8357,-1232.6904 358.8177,-1241.4101 365.5689,-1243.2598"/>
</g>
<!-- 207 -->
<g id="node14" class="node">
<title>207</title>
<polygon fill="none" stroke="#000000" points="141.0681,-1159.6 64.5159,-1159.6 64.5159,-1123.6 141.0681,-1123.6 141.0681,-1159.6"/>
<text text-anchor="middle" x="102.792" y="-1137.4" font-family="Times,serif" font-size="14.00" fill="#000000">BIPUSH 6</text>
</g>
<!-- 206&#45;&gt;207 -->
<g id="edge13" class="edge">
<title>206-&gt;207</title>
<path fill="none" stroke="#000000" d="M102.792,-1196.5551C102.792,-1188.4828 102.792,-1178.7764 102.792,-1169.7817"/>
<polygon fill="#000000" stroke="#000000" points="106.2921,-1169.6903 102.792,-1159.6904 99.2921,-1169.6904 106.2921,-1169.6903"/>
</g>
<!-- 208 -->
<g id="node15" class="node">
<title>208</title>
<polygon fill="none" stroke="#000000" points="138.2836,-1086.6 73.3004,-1086.6 73.3004,-1050.6 138.2836,-1050.6 138.2836,-1086.6"/>
<text text-anchor="middle" x="105.792" y="-1064.4" font-family="Times,serif" font-size="14.00" fill="#000000">ISTORE</text>
</g>
<!-- 207&#45;&gt;208 -->
<g id="edge14" class="edge">
<title>207-&gt;208</title>
<path fill="none" stroke="#000000" d="M103.5335,-1123.5551C103.8653,-1115.4828 104.2642,-1105.7764 104.6338,-1096.7817"/>
<polygon fill="#000000" stroke="#000000" points="108.1349,-1096.8257 105.0485,-1086.6904 101.1408,-1096.5382 108.1349,-1096.8257"/>
</g>
<!-- 209 -->
<g id="node16" class="node">
<title>209</title>
<polygon fill="none" stroke="#000000" points="143.1645,-959.6 88.4194,-959.6 88.4194,-923.6 143.1645,-923.6 143.1645,-959.6"/>
<text text-anchor="middle" x="115.792" y="-937.4" font-family="Times,serif" font-size="14.00" fill="#000000">GOTO</text>
</g>
<!-- 208&#45;&gt;209 -->
<g id="edge15" class="edge">
<title>208-&gt;209</title>
<path fill="none" stroke="#000000" d="M107.2247,-1050.404C108.8807,-1029.3735 111.6259,-994.5094 113.5618,-969.9236"/>
<polygon fill="#000000" stroke="#000000" points="117.066,-970.0062 114.3619,-959.7622 110.0876,-969.4566 117.066,-970.0062"/>
</g>
<!-- 210 -->
<g id="node17" class="node">
<title>210</title>
<ellipse fill="none" stroke="#000000" stroke-dasharray="1,5" cx="233.792" cy="-310" rx="48.0916" ry="18"/>
<text text-anchor="middle" x="233.792" y="-305.8" font-family="Times,serif" font-size="14.00" fill="#000000">Labelnull</text>
</g>
<!-- 209&#45;&gt;210 -->
<g id="edge16" class="edge">
<title>209-&gt;210</title>
<path fill="none" stroke="#000000" d="M119.6221,-923.5584C123.4568,-903.8954 128.792,-871.4601 128.792,-843.2 128.792,-843.2 128.792,-843.2 128.792,-398.8 128.792,-364.8702 161.1524,-341.2452 189.9433,-326.9405"/>
<polygon fill="#000000" stroke="#000000" points="191.5619,-330.047 199.12,-322.6223 188.5815,-323.7132 191.5619,-330.047"/>
<text text-anchor="middle" x="138.1216" y="-648.6" font-family="Times,serif" font-size="14.00" fill="#000000">yes</text>
</g>
<!-- 227 -->
<g id="node34" class="node">
<title>227</title>
<ellipse fill="none" stroke="#000000" stroke-dasharray="1,5" cx="233.792" cy="-237" rx="35.5681" ry="18"/>
<text text-anchor="middle" x="233.792" y="-232.8" font-family="Times,serif" font-size="14.00" fill="#000000">Line }</text>
</g>
<!-- 210&#45;&gt;227 -->
<g id="edge35" class="edge">
<title>210-&gt;227</title>
<path fill="none" stroke="#000000" d="M233.792,-291.9551C233.792,-283.8828 233.792,-274.1764 233.792,-265.1817"/>
<polygon fill="#000000" stroke="#000000" points="237.2921,-265.0903 233.792,-255.0904 230.2921,-265.0904 237.2921,-265.0903"/>
</g>
<!-- 212 -->
<g id="node19" class="node">
<title>212</title>
<ellipse fill="none" stroke="#000000" stroke-dasharray="1,5" cx="368.792" cy="-1141.6" rx="59.6466" ry="18"/>
<text text-anchor="middle" x="368.792" y="-1137.4" font-family="Times,serif" font-size="14.00" fill="#000000">Stack Frame</text>
</g>
<!-- 211&#45;&gt;212 -->
<g id="edge18" class="edge">
<title>211-&gt;212</title>
<path fill="none" stroke="#000000" d="M369.5448,-1196.5551C369.4342,-1188.4828 369.3012,-1178.7764 369.178,-1169.7817"/>
<polygon fill="#000000" stroke="#000000" points="372.6765,-1169.6414 369.0398,-1159.6904 365.6772,-1169.7374 372.6765,-1169.6414"/>
</g>
<!-- 213 -->
<g id="node20" class="node">
<title>213</title>
<polygon fill="none" stroke="#000000" points="398.3268,-1086.6 339.2571,-1086.6 339.2571,-1050.6 398.3268,-1050.6 398.3268,-1086.6"/>
<text text-anchor="middle" x="368.792" y="-1064.4" font-family="Times,serif" font-size="14.00" fill="#000000">ILOAD</text>
</g>
<!-- 212&#45;&gt;213 -->
<g id="edge19" class="edge">
<title>212-&gt;213</title>
<path fill="none" stroke="#000000" d="M368.792,-1123.5551C368.792,-1115.4828 368.792,-1105.7764 368.792,-1096.7817"/>
<polygon fill="#000000" stroke="#000000" points="372.2921,-1096.6903 368.792,-1086.6904 365.2921,-1096.6904 372.2921,-1096.6903"/>
</g>
<!-- 214 -->
<g id="node21" class="node">
<title>214</title>
<polygon fill="none" stroke="#000000" points="407.0681,-1013.6 330.5159,-1013.6 330.5159,-977.6 407.0681,-977.6 407.0681,-1013.6"/>
<text text-anchor="middle" x="368.792" y="-991.4" font-family="Times,serif" font-size="14.00" fill="#000000">BIPUSH 8</text>
</g>
<!-- 213&#45;&gt;214 -->
<g id="edge20" class="edge">
<title>213-&gt;214</title>
<path fill="none" stroke="#000000" d="M368.792,-1050.5551C368.792,-1042.4828 368.792,-1032.7764 368.792,-1023.7817"/>
<polygon fill="#000000" stroke="#000000" points="372.2921,-1023.6903 368.792,-1013.6904 365.2921,-1023.6904 372.2921,-1023.6903"/>
</g>
<!-- 215 -->
<g id="node22" class="node">
<title>215</title>
<polygon fill="none" stroke="#000000" points="413.1194,-905.6 324.4646,-905.6 324.4646,-869.6 413.1194,-869.6 413.1194,-905.6"/>
<text text-anchor="middle" x="368.792" y="-883.4" font-family="Times,serif" font-size="14.00" fill="#000000">IF_ICMPNE</text>
</g>
<!-- 214&#45;&gt;215 -->
<g id="edge21" class="edge">
<title>214-&gt;215</title>
<path fill="none" stroke="#000000" d="M368.792,-977.2793C368.792,-960.421 368.792,-935.1651 368.792,-915.747"/>
<polygon fill="#000000" stroke="#000000" points="372.2921,-915.6501 368.792,-905.6502 365.2921,-915.6502 372.2921,-915.6501"/>
</g>
<!-- 216 -->
<g id="node23" class="node">
<title>216</title>
<ellipse fill="none" stroke="#000000" stroke-dasharray="1,5" cx="252.792" cy="-798.8" rx="48.0916" ry="18"/>
<text text-anchor="middle" x="252.792" y="-794.6" font-family="Times,serif" font-size="14.00" fill="#000000">Labelnull</text>
</g>
<!-- 215&#45;&gt;216 -->
<g id="edge22" class="edge">
<title>215-&gt;216</title>
<path fill="none" stroke="#000000" d="M345.0377,-869.4157C326.8262,-855.4745 301.5968,-836.1609 282.1256,-821.2554"/>
<polygon fill="#000000" stroke="#000000" points="284.2386,-818.4651 274.1706,-815.1657 279.9835,-824.0235 284.2386,-818.4651"/>
<text text-anchor="middle" x="327.792" y="-839" font-family="Times,serif" font-size="14.00" fill="#000000">no</text>
</g>
<!-- 217 -->
<g id="node24" class="node">
<title>217</title>
<ellipse fill="none" stroke="#000000" stroke-dasharray="1,5" cx="368.792" cy="-798.8" rx="48.0916" ry="18"/>
<text text-anchor="middle" x="368.792" y="-794.6" font-family="Times,serif" font-size="14.00" fill="#000000">Labelnull</text>
</g>
<!-- 215&#45;&gt;217 -->
<g id="edge23" class="edge">
<title>215-&gt;217</title>
<path fill="none" stroke="#000000" d="M368.792,-869.2006C368.792,-857.0949 368.792,-841.0076 368.792,-827.2674"/>
<polygon fill="#000000" stroke="#000000" points="372.2921,-826.872 368.792,-816.872 365.2921,-826.8721 372.2921,-826.872"/>
<text text-anchor="middle" x="378.1216" y="-839" font-family="Times,serif" font-size="14.00" fill="#000000">yes</text>
</g>
<!-- 218 -->
<g id="node25" class="node">
<title>218</title>
<ellipse fill="none" stroke="#000000" stroke-dasharray="1,5" cx="241.792" cy="-725.8" rx="60.0188" ry="18"/>
<text text-anchor="middle" x="241.792" y="-721.6" font-family="Times,serif" font-size="14.00" fill="#000000">Line } else {</text>
</g>
<!-- 216&#45;&gt;218 -->
<g id="edge24" class="edge">
<title>216-&gt;218</title>
<path fill="none" stroke="#000000" d="M250.0729,-780.7551C248.8565,-772.6828 247.3939,-762.9764 246.0385,-753.9817"/>
<polygon fill="#000000" stroke="#000000" points="249.469,-753.2572 244.5179,-743.8904 242.5471,-754.3003 249.469,-753.2572"/>
</g>
<!-- 223 -->
<g id="node30" class="node">
<title>223</title>
<ellipse fill="none" stroke="#000000" stroke-dasharray="1,5" cx="368.792" cy="-725.8" rx="35.5681" ry="18"/>
<text text-anchor="middle" x="368.792" y="-721.6" font-family="Times,serif" font-size="14.00" fill="#000000">Line }</text>
</g>
<!-- 217&#45;&gt;223 -->
<g id="edge30" class="edge">
<title>217-&gt;223</title>
<path fill="none" stroke="#000000" d="M368.792,-780.7551C368.792,-772.6828 368.792,-762.9764 368.792,-753.9817"/>
<polygon fill="#000000" stroke="#000000" points="372.2921,-753.8903 368.792,-743.8904 365.2921,-753.8904 372.2921,-753.8903"/>
</g>
<!-- 219 -->
<g id="node26" class="node">
<title>219</title>
<polygon fill="none" stroke="#000000" points="291.1846,-670.8 176.3993,-670.8 176.3993,-634.8 291.1846,-634.8 291.1846,-670.8"/>
<text text-anchor="middle" x="233.792" y="-648.6" font-family="Times,serif" font-size="14.00" fill="#000000">Field System#out</text>
</g>
<!-- 218&#45;&gt;219 -->
<g id="edge25" class="edge">
<title>218-&gt;219</title>
<path fill="none" stroke="#000000" d="M239.8144,-707.7551C238.9298,-699.6828 237.8661,-689.9764 236.8804,-680.9817"/>
<polygon fill="#000000" stroke="#000000" points="240.3431,-680.4495 235.7745,-670.8904 233.3848,-681.2122 240.3431,-680.4495"/>
</g>
<!-- 220 -->
<g id="node27" class="node">
<title>220</title>
<polygon fill="none" stroke="#000000" points="281.4986,-597.8 186.0853,-597.8 186.0853,-561.8 281.4986,-561.8 281.4986,-597.8"/>
<text text-anchor="middle" x="233.792" y="-575.6" font-family="Times,serif" font-size="14.00" fill="#000000">LDC "x == 7"</text>
</g>
<!-- 219&#45;&gt;220 -->
<g id="edge26" class="edge">
<title>219-&gt;220</title>
<path fill="none" stroke="#000000" d="M233.792,-634.7551C233.792,-626.6828 233.792,-616.9764 233.792,-607.9817"/>
<polygon fill="#000000" stroke="#000000" points="237.2921,-607.8903 233.792,-597.8904 230.2921,-607.8904 237.2921,-607.8903"/>
</g>
<!-- 221 -->
<g id="node28" class="node">
<title>221</title>
<polygon fill="none" stroke="#000000" points="310.8348,-524.8 156.7492,-524.8 156.7492,-488.8 310.8348,-488.8 310.8348,-524.8"/>
<text text-anchor="middle" x="233.792" y="-502.6" font-family="Times,serif" font-size="14.00" fill="#000000">Call PrintStream#println</text>
</g>
<!-- 220&#45;&gt;221 -->
<g id="edge27" class="edge">
<title>220-&gt;221</title>
<path fill="none" stroke="#000000" d="M233.792,-561.7551C233.792,-553.6828 233.792,-543.9764 233.792,-534.9817"/>
<polygon fill="#000000" stroke="#000000" points="237.2921,-534.8903 233.792,-524.8904 230.2921,-534.8904 237.2921,-534.8903"/>
</g>
<!-- 222 -->
<g id="node29" class="node">
<title>222</title>
<polygon fill="none" stroke="#000000" points="261.1645,-416.8 206.4194,-416.8 206.4194,-380.8 261.1645,-380.8 261.1645,-416.8"/>
<text text-anchor="middle" x="233.792" y="-394.6" font-family="Times,serif" font-size="14.00" fill="#000000">GOTO</text>
</g>
<!-- 221&#45;&gt;222 -->
<g id="edge28" class="edge">
<title>221-&gt;222</title>
<path fill="none" stroke="#000000" d="M233.792,-488.4793C233.792,-471.621 233.792,-446.3651 233.792,-426.947"/>
<polygon fill="#000000" stroke="#000000" points="237.2921,-426.8501 233.792,-416.8502 230.2921,-426.8502 237.2921,-426.8501"/>
</g>
<!-- 222&#45;&gt;210 -->
<g id="edge29" class="edge">
<title>222-&gt;210</title>
<path fill="none" stroke="#000000" d="M233.792,-380.4006C233.792,-368.2949 233.792,-352.2076 233.792,-338.4674"/>
<polygon fill="#000000" stroke="#000000" points="237.2921,-338.072 233.792,-328.072 230.2921,-338.0721 237.2921,-338.072"/>
<text text-anchor="middle" x="243.1216" y="-350.2" font-family="Times,serif" font-size="14.00" fill="#000000">yes</text>
</g>
<!-- 224 -->
<g id="node31" class="node">
<title>224</title>
<ellipse fill="none" stroke="#000000" stroke-dasharray="1,5" cx="368.792" cy="-652.8" rx="59.6466" ry="18"/>
<text text-anchor="middle" x="368.792" y="-648.6" font-family="Times,serif" font-size="14.00" fill="#000000">Stack Frame</text>
</g>
<!-- 223&#45;&gt;224 -->
<g id="edge31" class="edge">
<title>223-&gt;224</title>
<path fill="none" stroke="#000000" d="M368.792,-707.7551C368.792,-699.6828 368.792,-689.9764 368.792,-680.9817"/>
<polygon fill="#000000" stroke="#000000" points="372.2921,-680.8903 368.792,-670.8904 365.2921,-680.8904 372.2921,-680.8903"/>
</g>
<!-- 225 -->
<g id="node32" class="node">
<title>225</title>
<polygon fill="none" stroke="#000000" points="393.8388,-597.8 313.7451,-597.8 313.7451,-561.8 393.8388,-561.8 393.8388,-597.8"/>
<text text-anchor="middle" x="353.792" y="-575.6" font-family="Times,serif" font-size="14.00" fill="#000000">ICONST_1</text>
</g>
<!-- 224&#45;&gt;225 -->
<g id="edge32" class="edge">
<title>224-&gt;225</title>
<path fill="none" stroke="#000000" d="M365.0841,-634.7551C363.4074,-626.5951 361.3876,-616.7652 359.5225,-607.6887"/>
<polygon fill="#000000" stroke="#000000" points="362.9504,-606.9812 357.5092,-597.8904 356.0936,-608.3902 362.9504,-606.9812"/>
</g>
<!-- 226 -->
<g id="node33" class="node">
<title>226</title>
<polygon fill="none" stroke="#000000" points="363.2836,-470.8 298.3004,-470.8 298.3004,-434.8 363.2836,-434.8 363.2836,-470.8"/>
<text text-anchor="middle" x="330.792" y="-448.6" font-family="Times,serif" font-size="14.00" fill="#000000">ISTORE</text>
</g>
<!-- 225&#45;&gt;226 -->
<g id="edge33" class="edge">
<title>225-&gt;226</title>
<path fill="none" stroke="#000000" d="M350.4966,-561.604C346.6879,-540.5735 340.374,-505.7094 335.9214,-481.1236"/>
<polygon fill="#000000" stroke="#000000" points="339.3073,-480.1784 334.0812,-470.9622 332.4193,-481.4259 339.3073,-480.1784"/>
</g>
<!-- 226&#45;&gt;210 -->
<g id="edge34" class="edge">
<title>226-&gt;210</title>
<path fill="none" stroke="#000000" d="M318.5069,-434.7143C301.5053,-409.6852 270.7095,-364.3487 251.3031,-335.7792"/>
<polygon fill="#000000" stroke="#000000" points="254.1882,-333.7976 245.6739,-327.4922 248.3977,-337.731 254.1882,-333.7976"/>
</g>
<!-- 228 -->
<g id="node35" class="node">
<title>228</title>
<ellipse fill="none" stroke="#000000" stroke-dasharray="1,5" cx="233.792" cy="-164" rx="59.6466" ry="18"/>
<text text-anchor="middle" x="233.792" y="-159.8" font-family="Times,serif" font-size="14.00" fill="#000000">Stack Frame</text>
</g>
<!-- 227&#45;&gt;228 -->
<g id="edge36" class="edge">
<title>227-&gt;228</title>
<path fill="none" stroke="#000000" d="M233.792,-218.9551C233.792,-210.8828 233.792,-201.1764 233.792,-192.1817"/>
<polygon fill="#000000" stroke="#000000" points="237.2921,-192.0903 233.792,-182.0904 230.2921,-192.0904 237.2921,-192.0903"/>
</g>
<!-- 229 -->
<g id="node36" class="node">
<title>229</title>
<polygon fill="none" stroke="#000000" points="263.3268,-109 204.2571,-109 204.2571,-73 263.3268,-73 263.3268,-109"/>
<text text-anchor="middle" x="233.792" y="-86.8" font-family="Times,serif" font-size="14.00" fill="#000000">ILOAD</text>
</g>
<!-- 228&#45;&gt;229 -->
<g id="edge37" class="edge">
<title>228-&gt;229</title>
<path fill="none" stroke="#000000" d="M233.792,-145.9551C233.792,-137.8828 233.792,-128.1764 233.792,-119.1817"/>
<polygon fill="#000000" stroke="#000000" points="237.2921,-119.0903 233.792,-109.0904 230.2921,-119.0904 237.2921,-119.0903"/>
</g>
<!-- 230 -->
<g id="node37" class="node">
<title>230</title>
<polygon fill="none" stroke="#000000" points="271.945,-36 195.639,-36 195.639,0 271.945,0 271.945,-36"/>
<text text-anchor="middle" x="233.792" y="-13.8" font-family="Times,serif" font-size="14.00" fill="#000000">IRETURN</text>
</g>
<!-- 229&#45;&gt;230 -->
<g id="edge38" class="edge">
<title>229-&gt;230</title>
<path fill="none" stroke="#000000" d="M233.792,-72.9551C233.792,-64.8828 233.792,-55.1764 233.792,-46.1817"/>
<polygon fill="#000000" stroke="#000000" points="237.2921,-46.0903 233.792,-36.0904 230.2921,-46.0904 237.2921,-46.0903"/>
</g>
</g>
</svg>